<?xml version="1.0" encoding="UTF-8" standalone="no"?>
<svg width="400" height="300" viewBox="0 0 400 300" xmlns="http://www.w3.org/2000/svg">
  <rect width="400" height="300" fill="#f8f9fa"/>
  <text x="200" y="20" font-family="Arial, sans-serif" font-size="18" text-anchor="middle" fill="#0056b3" font-weight="bold">Blutforde</text>
  <text x="200" y="280" font-family="Arial, sans-serif" font-size="14" text-anchor="middle" fill="#666">Szív- és érrendszeri tabletta</text>
  
  <!-- Pill blister pack -->
  <rect x="100" y="70" width="200" height="140" rx="5" ry="5" fill="#f0f0f0" stroke="#ddd" stroke-width="2"/>
  
  <!-- Pills in blister -->
  <circle cx="125" cy="95" r="15" fill="#f0f0f0" stroke="#e74c3c" stroke-width="2"/>
  <circle cx="165" cy="95" r="15" fill="#f0f0f0" stroke="#e74c3c" stroke-width="2"/>
  <circle cx="205" cy="95" r="15" fill="#f0f0f0" stroke="#e74c3c" stroke-width="2"/>
  <circle cx="245" cy="95" r="15" fill="#f0f0f0" stroke="#e74c3c" stroke-width="2"/>
  <circle cx="275" cy="95" r="15" fill="#f0f0f0" stroke="#e74c3c" stroke-width="2"/>
  
  <circle cx="125" cy="135" r="15" fill="#f0f0f0" stroke="#e74c3c" stroke-width="2"/>
  <circle cx="165" cy="135" r="15" fill="#f0f0f0" stroke="#e74c3c" stroke-width="2"/>
  <circle cx="205" cy="135" r="15" fill="#f0f0f0" stroke="#e74c3c" stroke-width="2"/>
  <circle cx="245" cy="135" r="15" fill="#f0f0f0" stroke="#e74c3c" stroke-width="2"/>
  <circle cx="275" cy="135" r="15" fill="#f0f0f0" stroke="#e74c3c" stroke-width="2"/>
  
  <circle cx="125" cy="175" r="15" fill="#f0f0f0" stroke="#e74c3c" stroke-width="2"/>
  <circle cx="165" cy="175" r="15" fill="#f0f0f0" stroke="#e74c3c" stroke-width="2"/>
  <circle cx="205" cy="175" r="15" fill="#f0f0f0" stroke="#e74c3c" stroke-width="2"/>
  <circle cx="245" cy="175" r="15" fill="#f0f0f0" stroke="#e74c3c" stroke-width="2"/>
  <circle cx="275" cy="175" r="15" fill="#f0f0f0" stroke="#e74c3c" stroke-width="2"/>
  
  <!-- Pill in the foreground -->
  <ellipse cx="150" cy="220" rx="25" ry="15" fill="#e74c3c" stroke="#c0392b" stroke-width="1"/>
  <line x1="150" y1="205" x2="150" y2="235" stroke="#c0392b" stroke-width="1"/>
  
  <!-- Heart symbol -->
  <path d="M270,200 c-5,-10 -15,-10 -15,0 c0,5 10,15 15,20 c5,-5 15,-15 15,-20 c0,-10 -10,-10 -15,0 z" fill="#e74c3c" stroke="#c0392b" stroke-width="1"/>
</svg>